<?xml version="1.0" encoding="UTF-8" standalone="no"?>
<!-- Created with Inkscape (http://www.inkscape.org/) -->

<svg
   width="32"
   height="32"
   viewBox="0 0 8.4666665 8.4666666"
   version="1.1"
   id="svg5"
   xmlns="http://www.w3.org/2000/svg"
   xmlns:svg="http://www.w3.org/2000/svg">
  <style
     id="style2">
    path {
      fill: #0d1021;
    }

    @media (prefers-color-scheme: dark) {
      path {
        fill: #fff;
      }
    }
  </style>
  <defs
     id="defs2" />
  <g
     aria-label="{a}"
     id="text393"
     transform="translate(0.00446164,-0.0044662)">
    <path
       d="M 2.3538928,2.4712248 Q 2.1159992,2.3961004 1.9657505,2.4148815 1.8217623,2.4274022 1.7341172,2.4962662 1.6464722,2.5588698 1.6151704,2.6590356 1.5838686,2.752941 1.5838686,2.8468464 V 3.466622 q 0,0.1940711 -0.037562,0.3192783 Q 1.5087443,3.9111075 1.43362,3.9987525 1.364756,4.0863976 1.2520695,4.1490012 1.1456434,4.2053444 1.0016551,4.2616877 1.139383,4.3180309 1.2458092,4.3868949 1.3584956,4.4557588 1.43362,4.5434038 q 0.075124,0.087645 0.1126864,0.2128523 0.037562,0.1189468 0.037562,0.2817162 v 0.6135152 q 0,0.093905 0.031302,0.1878108 0.037562,0.093905 0.1252072,0.156509 0.087645,0.062604 0.2316333,0.075124 0.1502486,0.018781 0.3818819,-0.043823 V 6.8534766 Q 1.8843659,6.9160802 1.5776082,6.859737 1.277111,6.8033937 1.0955605,6.6594054 0.91401009,6.5216775 0.83888578,6.3025649 0.77002182,6.0897127 0.77002182,5.833038 V 5.1757002 q 0,-0.3004973 -0.18155043,-0.4131838 Q 0.40692095,4.64983 -2.4318695e-6,4.6560903 V 3.8359832 Q 0.45074347,3.8359832 0.60725247,3.6669535 0.77002182,3.4979238 0.77002182,3.1473436 V 2.4900058 q 0,-0.2316333 0.0939054,-0.4194441 0.0939054,-0.1940711 0.28797658,-0.3130179 0.1940711,-0.1189469 0.488308,-0.156509 0.3004973,-0.037562 0.713681,0.043822 z"
       id="path445" />
    <path
       d="m 2.6418732,4.3242913 q 0,-0.3255388 0.1064261,-0.6072549 Q 2.8547254,3.4353202 3.0362759,3.2287283 3.2240867,3.0158761 3.4745011,2.8969292 3.7249155,2.771722 4.012892,2.771722 q 0.2817162,0 0.5196099,0.1189469 0.2378936,0.1189468 0.4131837,0.3192783 V 2.7842428 h 0.782545 V 5.851819 H 4.9456856 V 5.4261146 Q 4.7703955,5.6327064 4.5325019,5.7516533 4.2946082,5.8643398 4.012892,5.8643398 q -0.2879765,0 -0.5383909,-0.1189469 Q 3.2240867,5.6201857 3.0362759,5.4135939 2.8547254,5.207002 2.7482993,4.9252858 2.6418732,4.6435696 2.6418732,4.3242913 Z m 0.782545,0 q 0,0.156509 0.056343,0.2942369 0.056343,0.1377279 0.156509,0.244154 0.1064261,0.1001658 0.2378937,0.1627693 0.1377279,0.056343 0.3004973,0.056343 0.156509,0 0.2942369,-0.056343 0.1377279,-0.062603 0.2378936,-0.1627693 0.1064262,-0.1064261 0.1627694,-0.244154 0.062604,-0.1377279 0.062604,-0.2942369 0,-0.156509 -0.062604,-0.294237 Q 4.8142181,3.8860661 4.7077919,3.7859003 4.6076262,3.6794742 4.4698983,3.623131 4.3321704,3.5605274 4.1756614,3.5605274 q -0.1627694,0 -0.3004973,0.062604 -0.1314676,0.056343 -0.2378937,0.1627693 -0.1001657,0.1001658 -0.156509,0.244154 -0.056343,0.137728 -0.056343,0.2942366 z"
       id="path447" />
    <path
       d="m 6.1038508,1.6448573 q 0.4131837,-0.081385 0.7074206,-0.043822 0.3004973,0.037562 0.4945685,0.156509 0.1940711,0.1189468 0.2879765,0.3130179 0.093905,0.1878108 0.093905,0.4194441 v 0.6573378 q 0,0.3505802 0.156509,0.5196099 0.1627694,0.1690297 0.6135153,0.1690297 V 4.6560903 Q 8.0508227,4.64983 7.8692722,4.7625164 7.6877218,4.8752029 7.6877218,5.1757002 V 5.833038 q 0,0.2566747 -0.075124,0.4695269 Q 7.5437335,6.5216775 7.3621831,6.6594054 7.1806327,6.8033937 6.873875,6.859737 6.5733778,6.9160802 6.1038508,6.8534766 V 6.0271091 q 0.2316333,0.062604 0.3756216,0.043823 0.1502486,-0.012521 0.2378937,-0.075124 0.087645,-0.062604 0.1189468,-0.156509 0.037562,-0.093905 0.037562,-0.1878108 v -0.613516 q 0,-0.1627694 0.037562,-0.2817162 Q 6.9489994,4.6310489 7.0241237,4.5434038 7.099248,4.4557588 7.2056741,4.3868949 7.3183606,4.3180309 7.4560885,4.2616877 7.3121002,4.2053444 7.1994138,4.1490012 7.0929876,4.0863976 7.0178633,3.9987525 6.9489994,3.9111075 6.9114372,3.7859003 6.873875,3.6606931 6.873875,3.466622 V 2.8468464 q 0,-0.093905 -0.031302,-0.1878108 Q 6.8112714,2.5588698 6.7236264,2.4962662 6.6359814,2.4274022 6.4857327,2.4148815 6.3354841,2.3961004 6.1038508,2.4712248 Z"
       id="path449" />
  </g>
</svg>
