<?xml version="1.0" encoding="UTF-8"?>
<!-- Created with Inkscape (http://www.inkscape.org/) -->
<svg width="69" height="24" version="1.1" viewBox="0 0 69 24" xmlns="http://www.w3.org/2000/svg">
 <g fill="#fff" aria-label="{amn}">
  <path d="m10.09 3.147q-1.013-0.2133-1.707-0.08-0.6667 0.1067-1.067 0.4533t-0.5867 0.9067q-0.16 0.5333-0.16 1.173v2.827q0 0.8533-0.2133 1.44-0.1867 0.5867-0.56 1.013t-0.9067 0.72q-0.5333 0.2667-1.2 0.48 1.253 0.32 2.053 1.2 0.8267 0.8533 0.8267 2.373v2.827q0 0.6133 0.16 1.12 0.1867 0.5333 0.5867 0.88t1.067 0.48q0.6933 0.1333 1.707-0.05333v2.373q-1.707 0.1867-2.853-0.05334-1.12-0.24-1.813-0.8267-0.6667-0.5867-0.96-1.467-0.2667-0.8533-0.2667-1.947v-2.933q0-1.44-0.9067-2.16-0.88-0.7467-2.613-0.6933v-2.347q1.867-0.02667 2.693-0.88 0.8267-0.8533 0.8267-2.453v-2.96q0-1.013 0.3467-1.813t1.067-1.307q0.72-0.5333 1.813-0.72 1.12-0.1867 2.667 0.05333z"/>
  <path d="m11.34 12.19q0-1.387 0.48-2.587t1.28-2.08q0.8267-0.9067 1.92-1.413 1.12-0.5333 2.4-0.5333 1.52 0 2.773 0.7467 1.253 0.72 2.053 1.947v-2.64h2.267v13.07h-2.267v-2.613q-0.8 1.227-2.053 1.947t-2.773 0.72q-1.28 0-2.4-0.5067-1.093-0.5333-1.92-1.413-0.8-0.88-1.28-2.08t-0.48-2.56zm2.267 0q0 0.88 0.32 1.68 0.3467 0.7733 0.9067 1.36 0.5867 0.5867 1.36 0.9333 0.8 0.32 1.707 0.32 0.88 0 1.653-0.32 0.8-0.3467 1.387-0.9333 0.5867-0.5867 0.9333-1.36 0.3467-0.8 0.3467-1.68t-0.3467-1.68q-0.3467-0.8-0.9333-1.387-0.5867-0.5867-1.387-0.9333-0.7733-0.3467-1.653-0.3467-0.9067 0-1.707 0.3467-0.7733 0.3467-1.36 0.9333-0.56 0.5867-0.9067 1.387-0.32 0.8-0.32 1.68z"/>
  <path d="m35.61 18.69h-2.24v-8.56q0-0.6667-0.32-1.2t-0.8267-0.8533q-0.5067-0.32-1.12-0.3467-0.5867-0.05333-1.147 0.24-0.5867 0.2667-0.9867 0.8533-0.4 0.56-0.4533 1.653v8.213h-2.267v-13.07h2.267v1.627q0.56-0.8 1.36-1.227 0.8-0.4533 1.787-0.4533 1.253 0 2.133 0.6133t1.333 1.6q0.5067-1.04 1.387-1.627 0.9067-0.5867 2.133-0.5867 0.9067 0 1.653 0.3733 0.7733 0.3467 1.307 0.9867 0.5333 0.6133 0.8267 1.44 0.2933 0.8267 0.2933 1.76v8.56h-2.24v-8.56q0-0.6933-0.32-1.227t-0.8267-0.8267q-0.5067-0.32-1.12-0.3467-0.5867-0.05333-1.147 0.24-0.64 0.2667-1.067 0.9067-0.4 0.64-0.4 1.813z"/>
  <path d="m55.1 18.69v-6.507q0-0.88-0.3467-1.68-0.32-0.8-0.9067-1.387-0.5867-0.6133-1.387-0.96-0.7733-0.3467-1.653-0.3467t-1.653 0.3467q-0.7733 0.32-1.36 0.9067t-0.9333 1.413q-0.3467 0.8267-0.3733 1.813v6.4h-2.24v-13.07h2.24v2.747q0.8-1.36 2.08-2.08t2.827-0.72q1.253 0 2.32 0.48 1.093 0.48 1.893 1.333 0.8 0.8267 1.253 2 0.48 1.147 0.48 2.533v6.773z"/>
  <path d="m58.91 0.7733q1.547-0.24 2.64-0.05333 1.12 0.1867 1.84 0.72 0.72 0.5067 1.067 1.307t0.3467 1.813v2.96q0 1.6 0.8267 2.453 0.8267 0.8533 2.693 0.88v2.347q-1.733-0.05333-2.64 0.6933-0.88 0.72-0.88 2.16v2.933q0 1.093-0.2933 1.947-0.2667 0.88-0.96 1.467-0.6667 0.5867-1.813 0.8267-1.12 0.24-2.827 0.05333v-2.373q1.013 0.1867 1.68 0.05333 0.6933-0.1333 1.093-0.48 0.4-0.3467 0.56-0.88 0.1867-0.5067 0.1867-1.12v-2.827q0-1.52 0.8-2.373 0.8267-0.88 2.08-1.2-0.6667-0.2133-1.2-0.48-0.5333-0.2933-0.9067-0.72t-0.5867-1.013q-0.1867-0.5867-0.1867-1.44v-2.827q0-0.64-0.1867-1.173-0.16-0.56-0.56-0.9067t-1.093-0.4533q-0.6667-0.1333-1.68 0.08z"/>
 </g>
 <g fill="#fff" aria-label="Team">
  <path d="m47.45 23.35v-2.944h-0.8461v-0.4509h2.128v0.4509h-0.8411v2.944z"/>
  <path d="m51.13 22.77q-0.2077 0.3091-0.4915 0.4509-0.2787 0.1419-0.608 0.1419-0.2584 0-0.4864-0.09627-0.228-0.1013-0.3952-0.2685t-0.2685-0.3952q-0.09627-0.228-0.09627-0.4864 0-0.2635 0.09627-0.4915 0.1013-0.228 0.2685-0.3952 0.1672-0.1723 0.3952-0.2685 0.228-0.1013 0.4864-0.1013 0.3293 0 0.6181 0.152 0.2939 0.152 0.5067 0.4712l-1.469 1.368q0.08107 0.05573 0.2027 0.08107 0.1216 0.02027 0.2432 0.0051 0.2128-0.02533 0.3952-0.1419 0.1875-0.1216 0.3141-0.304zm-1.941-0.7195q-0.0152 0.1925 0.05067 0.3547t0.1875 0.2533l1.16-1.13q-0.09627-0.1165-0.2584-0.1875-0.1621-0.076-0.3547-0.06587-0.1571 0.01013-0.2939 0.07093t-0.2432 0.1672q-0.1013 0.1013-0.1672 0.2381-0.06587 0.1368-0.08107 0.2989z"/>
  <path d="m51.35 22.12q0-0.2635 0.0912-0.4915t0.2432-0.3952q0.1571-0.1723 0.3648-0.2685 0.2128-0.1013 0.456-0.1013 0.2888 0 0.5269 0.1419 0.2381 0.1368 0.3901 0.3699v-0.5016h0.4307v2.483h-0.4307v-0.4965q-0.152 0.2331-0.3901 0.3699t-0.5269 0.1368q-0.2432 0-0.456-0.09627-0.2077-0.1013-0.3648-0.2685-0.152-0.1672-0.2432-0.3952t-0.0912-0.4864zm0.4307 0q0 0.1672 0.0608 0.3192 0.06587 0.1469 0.1723 0.2584 0.1115 0.1115 0.2584 0.1773 0.152 0.0608 0.3243 0.0608 0.1672 0 0.3141-0.0608 0.152-0.06587 0.2635-0.1773 0.1115-0.1115 0.1773-0.2584 0.06587-0.152 0.06587-0.3192t-0.06587-0.3192q-0.06587-0.152-0.1773-0.2635-0.1115-0.1115-0.2635-0.1773-0.1469-0.06587-0.3141-0.06587-0.1723 0-0.3243 0.06587-0.1469 0.06587-0.2584 0.1773-0.1064 0.1115-0.1723 0.2635-0.0608 0.152-0.0608 0.3192z"/>
  <path d="m55.96 23.35h-0.4256v-1.626q0-0.1267-0.0608-0.228t-0.1571-0.1621q-0.09627-0.0608-0.2128-0.06587-0.1115-0.01013-0.2179 0.0456-0.1115 0.05067-0.1875 0.1621-0.076 0.1064-0.08613 0.3141v1.561h-0.4307v-2.483h0.4307v0.3091q0.1064-0.152 0.2584-0.2331 0.152-0.08613 0.3395-0.08613 0.2381 0 0.4053 0.1165t0.2533 0.304q0.09627-0.1976 0.2635-0.3091 0.1723-0.1115 0.4053-0.1115 0.1723 0 0.3141 0.07093 0.1469 0.06587 0.2483 0.1875 0.1013 0.1165 0.1571 0.2736 0.05573 0.1571 0.05573 0.3344v1.626h-0.4256v-1.626q0-0.1317-0.0608-0.2331-0.0608-0.1013-0.1571-0.1571-0.09627-0.0608-0.2128-0.06587-0.1115-0.01013-0.2179 0.0456-0.1216 0.05067-0.2027 0.1723-0.076 0.1216-0.076 0.3445z"/>
 </g>
</svg>
